# xmcd
#
# Track frame offsets:
#	150
#	17334
#	32234
#	46468
#	63715
#	82553
#	98789
#	112175
#	130535
#	150241
#	167623
#	186988
#	206234
#	219739
#	233942
#	260695
#	277141
#
# Disc length: 3883 seconds
#
# Revision: 0
# Processed by: cddbd v1.5.1PL0 Copyright (c) Steve Scherf et al.
# Submitted via: EasyCDDAExtractor 8.2.3.1
#
DISCID=ef0f2911
DTITLE=The Kelly Family - Very best of
DYEAR=1900
DGENRE=Pop
TTITLE0=01 - An Angel -THe  Kelly Family
TTITLE1=02 - When The Boys Come Into Town -The  Kelly Family
TTITLE2=03 - I Can´t Help Myself - The Kelly Family
TTITLE3=04 - One More Freakin´ Dollar - The Kelly Family
TTITLE4=05 - Red Shoes - The Kelly Family
TTITLE5=06 - Oh It Hurts - The Kelly Family
TTITLE6=07 - Key To My Heart - The Kelly Family
TTITLE7=08 - Nanana - The Kelly Family
TTITLE8=09 - I Will Be Your Bride - The Kelly Family
TTITLE9=10 - Ares Qui - The Kelly Family
TTITLE10=11 - Please Don´t Go - The Kelly Family
TTITLE11=12 - The Children Of Kosovo - The Kelly Family
TTITLE12=13 - Every Baby - The Kelly Family
TTITLE13=14 - Santa Maria - The Kelly Family
TTITLE14=15 - The Wolf (live) - The Kelly Family
TTITLE15=16 - Baby Smile - The Kelly Family
TTITLE16=17 - Who´ll Come With Me (David´s Song) - The Kelly Family
EXTD=
EXTT0=
EXTT1=
EXTT2=
EXTT3=
EXTT4=
EXTT5=
EXTT6=
EXTT7=
EXTT8=
EXTT9=
EXTT10=
EXTT11=
EXTT12=
EXTT13=
EXTT14=
EXTT15=
EXTT16=
PLAYORDER=
